<svg xmlns="http://www.w3.org/2000/svg" xmlns:xlink="http://www.w3.org/1999/xlink" width="2765" zoomAndPan="magnify" viewBox="0 0 2073.75 1117.499971" height="1490" preserveAspectRatio="xMidYMid meet" version="1.0"><defs><clipPath id="90759b29e0"><path d="M 0.339844 0 L 2073.160156 0 L 2073.160156 1117 L 0.339844 1117 Z M 0.339844 0 " clip-rule="nonzero"/></clipPath><clipPath id="330d267579"><path d="M 0.339844 0 L 2073.160156 0 L 2073.160156 1116.96875 L 0.339844 1116.96875 Z M 0.339844 0 " clip-rule="nonzero"/></clipPath><clipPath id="0cec708aa8"><path d="M 11.023438 0 L 2062.476562 0 C 2065.308594 0 2068.027344 1.125 2070.03125 3.128906 C 2072.035156 5.132812 2073.160156 7.851562 2073.160156 10.6875 L 2073.160156 1106.28125 C 2073.160156 1109.117188 2072.035156 1111.835938 2070.03125 1113.839844 C 2068.027344 1115.84375 2065.308594 1116.96875 2062.476562 1116.96875 L 11.023438 1116.96875 C 8.191406 1116.96875 5.472656 1115.84375 3.46875 1113.839844 C 1.464844 1111.835938 0.339844 1109.117188 0.339844 1106.28125 L 0.339844 10.6875 C 0.339844 7.851562 1.464844 5.132812 3.46875 3.128906 C 5.472656 1.125 8.191406 0 11.023438 0 Z M 11.023438 0 " clip-rule="nonzero"/></clipPath><clipPath id="fac241ca32"><path d="M 0.339844 0 L 2073 0 L 2073 1116.96875 L 0.339844 1116.96875 Z M 0.339844 0 " clip-rule="nonzero"/></clipPath><clipPath id="db6f4fc591"><path d="M 11.023438 0 L 2062.476562 0 C 2065.308594 0 2068.027344 1.125 2070.03125 3.128906 C 2072.035156 5.132812 2073.160156 7.851562 2073.160156 10.6875 L 2073.160156 1106.28125 C 2073.160156 1109.117188 2072.035156 1111.835938 2070.03125 1113.839844 C 2068.027344 1115.84375 2065.308594 1116.96875 2062.476562 1116.96875 L 11.023438 1116.96875 C 8.191406 1116.96875 5.472656 1115.84375 3.46875 1113.839844 C 1.464844 1111.835938 0.339844 1109.117188 0.339844 1106.28125 L 0.339844 10.6875 C 0.339844 7.851562 1.464844 5.132812 3.46875 3.128906 C 5.472656 1.125 8.191406 0 11.023438 0 Z M 11.023438 0 " clip-rule="nonzero"/></clipPath><clipPath id="019999cf7e"><rect x="0" width="2074" y="0" height="1117"/></clipPath><clipPath id="5042d3e98a"><path d="M 0.34375 0 L 2073.160156 0 L 2073.160156 1117 L 0.34375 1117 Z M 0.34375 0 " clip-rule="nonzero"/></clipPath><clipPath id="e84e9a3757"><path d="M 11.027344 0 L 2062.472656 0 C 2065.304688 0 2068.023438 1.125 2070.027344 3.128906 C 2072.03125 5.132812 2073.15625 7.851562 2073.15625 10.6875 L 2073.15625 1106.277344 C 2073.15625 1109.113281 2072.03125 1111.832031 2070.027344 1113.835938 C 2068.023438 1115.839844 2065.304688 1116.964844 2062.472656 1116.964844 L 11.027344 1116.964844 C 8.195312 1116.964844 5.476562 1115.839844 3.472656 1113.835938 C 1.46875 1111.832031 0.34375 1109.113281 0.34375 1106.277344 L 0.34375 10.6875 C 0.34375 7.851562 1.46875 5.132812 3.472656 3.128906 C 5.476562 1.125 8.195312 0 11.027344 0 Z M 11.027344 0 " clip-rule="nonzero"/></clipPath></defs><g clip-path="url(#90759b29e0)"><path fill="#ffffff" d="M 0.339844 0 L 2073.160156 0 L 2073.160156 1117 L 0.339844 1117 Z M 0.339844 0 " fill-opacity="1" fill-rule="nonzero"/><path fill="#ffffff" d="M 0.339844 0 L 2073.160156 0 L 2073.160156 1117 L 0.339844 1117 Z M 0.339844 0 " fill-opacity="1" fill-rule="nonzero"/></g><g clip-path="url(#330d267579)"><g clip-path="url(#0cec708aa8)"><g transform="matrix(1, 0, 0, 1, 0.000000000000000056, 0)"><g clip-path="url(#019999cf7e)"><g clip-path="url(#fac241ca32)"><g clip-path="url(#db6f4fc591)"><path fill="#fc4363" d="M 0.339844 0 L 2072.839844 0 L 2072.839844 1116.96875 L 0.339844 1116.96875 Z M 0.339844 0 " fill-opacity="1" fill-rule="nonzero"/></g></g></g></g></g></g><g clip-path="url(#5042d3e98a)"><g clip-path="url(#e84e9a3757)"><path stroke-linecap="butt" transform="matrix(0.749665, 0, 0, 0.749665, 0.342877, -0.000000000000085227)" fill="none" stroke-linejoin="miter" d="M 14.252331 0.000000000000113687 L 2750.731551 0.000000000000113687 C 2754.514493 0.000000000000113687 2758.141115 1.500671 2760.814186 4.173742 C 2763.487256 6.846813 2764.987927 10.473435 2764.987927 14.256377 L 2764.987927 1475.696529 C 2764.987927 1479.479471 2763.487256 1483.106093 2760.814186 1485.779164 C 2758.141115 1488.452235 2754.514493 1489.952906 2750.731551 1489.952906 L 14.252331 1489.952906 C 10.474599 1489.952906 6.847977 1488.452235 4.174906 1485.779164 C 1.501836 1483.106093 0.00116458 1479.479471 0.00116458 1475.696529 L 0.00116458 14.256377 C 0.00116458 10.473435 1.501836 6.846813 4.174906 4.173742 C 6.847977 1.500671 10.474599 0.000000000000113687 14.252331 0.000000000000113687 Z M 14.252331 0.000000000000113687 " stroke="#000000" stroke-width="26" stroke-opacity="1" stroke-miterlimit="4"/></g></g></svg>