<svg xmlns="http://www.w3.org/2000/svg" xmlns:xlink="http://www.w3.org/1999/xlink" width="1088" zoomAndPan="magnify" viewBox="0 0 816 762.749994" height="1017" preserveAspectRatio="xMidYMid meet" version="1.0"><defs><clipPath id="625522dad5"><path d="M 21.101562 36.519531 L 800 36.519531 L 800 725.980469 L 21.101562 725.980469 Z M 21.101562 36.519531 " clip-rule="nonzero"/></clipPath><clipPath id="98fe134bb9"><path d="M 63.089844 36.519531 L 757.464844 36.519531 C 780.652344 36.519531 799.449219 55.320312 799.449219 78.507812 L 799.449219 683.992188 C 799.449219 707.179688 780.652344 725.980469 757.464844 725.980469 L 63.089844 725.980469 C 39.902344 725.980469 21.101562 707.179688 21.101562 683.992188 L 21.101562 78.507812 C 21.101562 55.320312 39.902344 36.519531 63.089844 36.519531 Z M 63.089844 36.519531 " clip-rule="nonzero"/></clipPath><clipPath id="be57880c31"><path d="M 0.101562 0.519531 L 778.550781 0.519531 L 778.550781 689.980469 L 0.101562 689.980469 Z M 0.101562 0.519531 " clip-rule="nonzero"/></clipPath><clipPath id="ef454a7a46"><path d="M 42.089844 0.519531 L 736.464844 0.519531 C 759.652344 0.519531 778.449219 19.320312 778.449219 42.507812 L 778.449219 647.992188 C 778.449219 671.179688 759.652344 689.980469 736.464844 689.980469 L 42.089844 689.980469 C 18.902344 689.980469 0.101562 671.179688 0.101562 647.992188 L 0.101562 42.507812 C 0.101562 19.320312 18.902344 0.519531 42.089844 0.519531 Z M 42.089844 0.519531 " clip-rule="nonzero"/></clipPath><clipPath id="d14f879186"><rect x="0" width="779" y="0" height="690"/></clipPath><clipPath id="e7a3447ea4"><path d="M 21.101562 36.523438 L 799.347656 36.523438 L 799.347656 726 L 21.101562 726 Z M 21.101562 36.523438 " clip-rule="nonzero"/></clipPath><clipPath id="e0b1241f1f"><path d="M 63.089844 36.523438 L 757.457031 36.523438 C 780.644531 36.523438 799.441406 55.320312 799.441406 78.511719 L 799.441406 683.988281 C 799.441406 707.175781 780.644531 725.976562 757.457031 725.976562 L 63.089844 725.976562 C 39.902344 725.976562 21.101562 707.175781 21.101562 683.988281 L 21.101562 78.511719 C 21.101562 55.320312 39.902344 36.523438 63.089844 36.523438 Z M 63.089844 36.523438 " clip-rule="nonzero"/></clipPath></defs><g clip-path="url(#625522dad5)"><g clip-path="url(#98fe134bb9)"><g transform="matrix(1, 0, 0, 1, 21, 36)"><g clip-path="url(#d14f879186)"><g clip-path="url(#be57880c31)"><g clip-path="url(#ef454a7a46)"><path fill="#5ce1e6" d="M 0.101562 0.519531 L 778.4375 0.519531 L 778.4375 689.980469 L 0.101562 689.980469 Z M 0.101562 0.519531 " fill-opacity="1" fill-rule="nonzero"/></g></g></g></g></g></g><g clip-path="url(#e7a3447ea4)"><g clip-path="url(#e0b1241f1f)"><path stroke-linecap="butt" transform="matrix(0.749754, 0, 0, 0.749754, 21.103212, 36.524015)" fill="none" stroke-linejoin="miter" d="M 56.000524 -0.00077029 L 982.126876 -0.00077029 C 1013.053676 -0.00077029 1038.12439 25.069944 1038.12439 56.001953 L 1038.12439 863.568628 C 1038.12439 894.495427 1013.053676 919.571351 982.126876 919.571351 L 56.000524 919.571351 C 25.073725 919.571351 -0.00219952 894.495427 -0.00219952 863.568628 L -0.00219952 56.001953 C -0.00219952 25.069944 25.073725 -0.00077029 56.000524 -0.00077029 Z M 56.000524 -0.00077029 " stroke="#000000" stroke-width="14" stroke-opacity="1" stroke-miterlimit="4"/></g></g></svg>