<svg xmlns="http://www.w3.org/2000/svg" xmlns:xlink="http://www.w3.org/1999/xlink" width="878" zoomAndPan="magnify" viewBox="0 0 658.5 170.249993" height="227" preserveAspectRatio="xMidYMid meet" version="1.0"><defs><clipPath id="787f933351"><path d="M 59.039062 0 L 591.769531 0 L 591.769531 168.578125 L 59.039062 168.578125 Z M 59.039062 0 " clip-rule="nonzero"/></clipPath><clipPath id="5b193da8a7"><path d="M 73.226562 0 L 576.980469 0 C 580.742188 0 584.351562 1.496094 587.011719 4.15625 C 589.671875 6.816406 591.167969 10.425781 591.167969 14.1875 L 591.167969 154.390625 C 591.167969 158.152344 589.671875 161.761719 587.011719 164.421875 C 584.351562 167.082031 580.742188 168.578125 576.980469 168.578125 L 73.226562 168.578125 C 69.464844 168.578125 65.855469 167.082031 63.195312 164.421875 C 60.535156 161.761719 59.039062 158.152344 59.039062 154.390625 L 59.039062 14.1875 C 59.039062 10.425781 60.535156 6.816406 63.195312 4.15625 C 65.855469 1.496094 69.464844 0 73.226562 0 Z M 73.226562 0 " clip-rule="nonzero"/></clipPath><clipPath id="eea51ef9b9"><path d="M 0.0390625 0 L 532.394531 0 L 532.394531 168.578125 L 0.0390625 168.578125 Z M 0.0390625 0 " clip-rule="nonzero"/></clipPath><clipPath id="6f8dcae03d"><path d="M 14.226562 0 L 517.980469 0 C 521.742188 0 525.351562 1.496094 528.011719 4.15625 C 530.671875 6.816406 532.167969 10.425781 532.167969 14.1875 L 532.167969 154.390625 C 532.167969 158.152344 530.671875 161.761719 528.011719 164.421875 C 525.351562 167.082031 521.742188 168.578125 517.980469 168.578125 L 14.226562 168.578125 C 10.464844 168.578125 6.855469 167.082031 4.195312 164.421875 C 1.535156 161.761719 0.0390625 158.152344 0.0390625 154.390625 L 0.0390625 14.1875 C 0.0390625 10.425781 1.535156 6.816406 4.195312 4.15625 C 6.855469 1.496094 10.464844 0 14.226562 0 Z M 14.226562 0 " clip-rule="nonzero"/></clipPath><clipPath id="15c4b319a4"><rect x="0" width="533" y="0" height="169"/></clipPath><clipPath id="3631d4f0bb"><path d="M 59.050781 0 L 591.445312 0 L 591.445312 168.757812 L 59.050781 168.757812 Z M 59.050781 0 " clip-rule="nonzero"/></clipPath><clipPath id="bcd0820656"><path d="M 73.234375 0 L 576.96875 0 C 580.730469 0 584.339844 1.496094 587 4.15625 C 589.660156 6.816406 591.15625 10.425781 591.15625 14.1875 L 591.15625 154.382812 C 591.15625 158.144531 589.660156 161.753906 587 164.414062 C 584.339844 167.074219 580.730469 168.570312 576.96875 168.570312 L 73.234375 168.570312 C 69.472656 168.570312 65.863281 167.074219 63.203125 164.414062 C 60.542969 161.753906 59.050781 158.144531 59.050781 154.382812 L 59.050781 14.1875 C 59.050781 10.425781 60.542969 6.816406 63.203125 4.15625 C 65.863281 1.496094 69.472656 0 73.234375 0 Z M 73.234375 0 " clip-rule="nonzero"/></clipPath></defs><g clip-path="url(#787f933351)"><g clip-path="url(#5b193da8a7)"><g transform="matrix(1, 0, 0, 1, 59, 0)"><g clip-path="url(#15c4b319a4)"><g clip-path="url(#eea51ef9b9)"><g clip-path="url(#6f8dcae03d)"><path fill="#fc4363" d="M 0.0390625 0 L 532.109375 0 L 532.109375 168.578125 L 0.0390625 168.578125 Z M 0.0390625 0 " fill-opacity="1" fill-rule="nonzero"/></g></g></g></g></g></g><g clip-path="url(#3631d4f0bb)"><g clip-path="url(#bcd0820656)"><path stroke-linecap="butt" transform="matrix(0.74671, 0, 0, 0.74671, 59.049073, 0)" fill="none" stroke-linejoin="miter" d="M 18.997058 0 L 693.601739 0 C 698.63946 0 703.473161 2.003579 707.035661 5.56608 C 710.598161 9.12858 712.601741 13.962281 712.601741 19.000002 L 712.601741 206.750568 C 712.601741 211.788288 710.598161 216.621989 707.035661 220.18449 C 703.473161 223.74699 698.63946 225.750569 693.601739 225.750569 L 18.997058 225.750569 C 13.959337 225.750569 9.125636 223.74699 5.563136 220.18449 C 2.000636 216.621989 0.00228745 211.788288 0.00228745 206.750568 L 0.00228745 19.000002 C 0.00228745 13.962281 2.000636 9.12858 5.563136 5.56608 C 9.125636 2.003579 13.959337 0 18.997058 0 Z M 18.997058 0 " stroke="#000000" stroke-width="6" stroke-opacity="1" stroke-miterlimit="4"/></g></g></svg>