<svg xmlns="http://www.w3.org/2000/svg" xmlns:xlink="http://www.w3.org/1999/xlink" width="2765" zoomAndPan="magnify" viewBox="0 0 2073.75 1117.499971" height="1490" preserveAspectRatio="xMidYMid meet" version="1.0"><defs><g/><clipPath id="3fca5542cd"><rect x="0" width="1603" y="0" height="481"/></clipPath></defs><g transform="matrix(1, 0, 0, 1, 213, 528)"><g clip-path="url(#3fca5542cd)"><g fill="#000000" fill-opacity="1"><g transform="translate(22.247422, 380.82605)"><g><path d="M 112.277344 -1.6875 L 44.277344 -182.535156 L 61.0625 -188.847656 L 62.171875 -170.945312 L 60.726562 -170.855469 L 59.617188 -188.757812 L 77.429688 -190.835938 C 81.828125 -153.136719 84.425781 -127.855469 85.222656 -114.996094 L 93.105469 12.199219 L 12.785156 17.175781 L -3.996094 -253.605469 L 94.929688 -259.738281 L 166.359375 -71.125 L 149.585938 -64.773438 L 148.476562 -82.671875 L 149.441406 -82.730469 L 150.550781 -64.832031 L 133.199219 -69.359375 L 184.328125 -265.277344 L 283.019531 -271.394531 L 299.800781 -0.609375 L 217.550781 4.488281 L 209.550781 -124.636719 C 209.214844 -130.027344 208.914062 -136.226562 208.644531 -143.234375 C 208.375 -150.222656 207.964844 -168.601562 207.417969 -198.375 L 225.347656 -198.703125 L 226.457031 -180.804688 L 225.011719 -180.714844 L 223.902344 -198.613281 L 241.25 -194.070312 L 188.773438 6.269531 L 116.941406 10.722656 Z M 145.851562 -14.308594 L 129.0625 -7.996094 L 127.957031 -25.898438 L 173.601562 -28.726562 L 174.710938 -10.828125 L 157.363281 -15.371094 L 209.839844 -215.710938 L 242.933594 -217.761719 L 243.277344 -199.035156 C 243.824219 -169.5 244.226562 -151.359375 244.484375 -144.613281 C 244.742188 -137.882812 245.03125 -131.964844 245.347656 -126.855469 L 252.242188 -15.632812 L 234.339844 -14.523438 L 233.230469 -32.421875 L 279.683594 -35.300781 L 280.792969 -17.398438 L 262.890625 -16.289062 L 248.328125 -251.273438 L 266.230469 -252.382812 L 267.339844 -234.484375 L 199.511719 -230.28125 L 198.402344 -248.179688 L 215.753906 -243.652344 L 164.625 -47.734375 L 137.496094 -46.054688 L 66.066406 -234.667969 L 82.839844 -241.019531 L 83.949219 -223.121094 L 16.121094 -218.917969 L 15.011719 -236.816406 L 32.914062 -237.925781 L 47.472656 -2.941406 L 29.574219 -1.832031 L 28.464844 -19.734375 L 72.984375 -22.492188 L 74.09375 -4.589844 L 56.195312 -3.480469 L 49.421875 -112.777344 C 48.664062 -124.992188 46.125 -149.625 41.804688 -186.679688 L 39.609375 -205.484375 L 73.183594 -207.566406 Z M 145.851562 -14.308594 "/></g></g></g><g fill="#000000" fill-opacity="1"><g transform="translate(329.523549, 362.443862)"><g><path d="M 123.539062 1.9375 L 113.140625 -22.175781 L 129.609375 -29.277344 L 130.269531 -11.355469 L 128.984375 -11.304688 L 128.320312 -29.230469 L 142.769531 -18.605469 C 133.203125 -5.59375 122.847656 3.726562 111.707031 9.363281 C 100.773438 14.890625 86.972656 17.960938 70.300781 18.574219 C 59.5625 18.972656 49.75 17.738281 40.855469 14.878906 C 31.453125 11.855469 23.210938 7.070312 16.128906 0.527344 C 2.1875 -12.351562 -5.210938 -30.390625 -6.066406 -53.597656 C -6.515625 -65.835938 -4.671875 -76.773438 -0.527344 -86.410156 C 3.835938 -96.566406 10.585938 -104.996094 19.722656 -111.699219 C 35.519531 -123.292969 58.578125 -130.195312 88.902344 -132.40625 L 120.175781 -134.527344 L 121.390625 -116.636719 L 103.46875 -115.976562 L 103.175781 -123.859375 C 103.082031 -126.4375 102.742188 -128.488281 102.160156 -130.011719 C 101.886719 -130.726562 101.597656 -131.222656 101.289062 -131.5 C 100.941406 -131.816406 100.339844 -132.097656 99.480469 -132.34375 C 97.765625 -132.832031 95.519531 -133.027344 92.75 -132.925781 C 80.925781 -132.488281 66.609375 -128.128906 49.800781 -119.851562 L 34.269531 -112.199219 L 0.335938 -175.398438 L 15.503906 -184.0625 C 38.363281 -197.121094 63.867188 -204.171875 92.015625 -205.207031 C 120.414062 -206.257812 142.945312 -200.476562 159.605469 -187.863281 C 168.683594 -180.988281 175.609375 -172.210938 180.375 -161.53125 C 184.832031 -151.542969 187.300781 -140.027344 187.78125 -126.980469 L 192.867188 10.832031 L 128.398438 13.210938 Z M 156.472656 -12.265625 L 140.007812 -5.164062 L 139.34375 -23.085938 L 173.621094 -24.351562 L 174.285156 -6.429688 L 156.363281 -5.769531 L 151.9375 -125.660156 C 151.628906 -134.074219 150.1875 -141.15625 147.617188 -146.917969 C 145.355469 -151.984375 142.136719 -156.101562 137.957031 -159.265625 C 128.089844 -166.730469 113.21875 -170.097656 93.339844 -169.363281 C 71.066406 -168.542969 51.050781 -163.0625 33.296875 -152.917969 L 24.402344 -168.492188 L 40.203125 -176.976562 L 57.679688 -144.425781 L 41.878906 -135.941406 L 33.953125 -152.027344 C 55.34375 -162.5625 74.5 -168.144531 91.425781 -168.769531 C 105.628906 -169.292969 116.949219 -165.722656 125.394531 -158.0625 C 133.957031 -150.292969 138.5 -139.332031 139.019531 -125.183594 L 139.953125 -99.921875 L 91.507812 -96.632812 C 79.308594 -95.742188 68.820312 -94.03125 60.039062 -91.5 C 52.105469 -89.210938 45.742188 -86.304688 40.945312 -82.785156 C 37.058594 -79.933594 34.21875 -76.417969 32.421875 -72.246094 C 30.40625 -67.554688 29.527344 -61.78125 29.777344 -54.921875 C 30.269531 -41.652344 33.832031 -31.949219 40.46875 -25.820312 C 47.132812 -19.664062 56.636719 -16.8125 68.976562 -17.269531 C 80.414062 -17.691406 89.261719 -19.484375 95.519531 -22.648438 C 101.570312 -25.707031 107.6875 -31.441406 113.875 -39.851562 L 119.003906 -46.832031 L 141.214844 -47.652344 Z M 123.714844 -70.101562 L 104.75 -68.757812 C 98.820312 -68.359375 93.824219 -67.589844 89.761719 -66.445312 C 86.578125 -65.546875 84.15625 -64.488281 82.496094 -63.277344 C 81.683594 -62.679688 81.121094 -62.023438 80.800781 -61.300781 C 80.296875 -60.15625 80.082031 -58.539062 80.160156 -56.457031 C 80.207031 -55.203125 80.339844 -54.316406 80.566406 -53.789062 C 80.488281 -53.972656 80.3125 -54.175781 80.042969 -54.390625 C 79.992188 -54.433594 79.945312 -54.46875 79.902344 -54.496094 L 79.917969 -54.488281 C 80.105469 -54.398438 80.371094 -54.3125 80.71875 -54.222656 C 82.078125 -53.882812 83.890625 -53.753906 86.160156 -53.835938 C 92.722656 -54.078125 97.617188 -55.871094 100.84375 -59.207031 C 102.304688 -60.71875 103.375 -62.441406 104.050781 -64.371094 C 104.847656 -66.648438 105.1875 -69.363281 105.070312 -72.523438 L 104.523438 -87.328125 L 122.445312 -87.992188 Z M 139.683594 -107.191406 L 140.914062 -73.847656 C 141.199219 -66.171875 140.195312 -59.0625 137.90625 -52.523438 C 135.496094 -45.640625 131.738281 -39.554688 126.628906 -34.273438 C 121.574219 -29.042969 115.621094 -25.050781 108.769531 -22.296875 C 102.347656 -19.714844 95.253906 -18.28125 87.484375 -17.992188 C 75.066406 -17.535156 65.070312 -20.371094 57.488281 -26.503906 C 53.125 -30.03125 49.8125 -34.449219 47.558594 -39.75 C 45.605469 -44.339844 44.527344 -49.46875 44.316406 -55.136719 C 44.035156 -62.707031 45.257812 -69.582031 47.972656 -75.753906 C 50.875 -82.347656 55.320312 -87.835938 61.308594 -92.21875 C 70.910156 -99.246094 84.542969 -103.351562 102.214844 -104.535156 L 121.179688 -105.878906 Z M 139.683594 -107.191406 "/></g></g></g><g fill="#000000" fill-opacity="1"><g transform="translate(526.454184, 355.372689)"><g><path d="M 122.25 -203.808594 C 130.199219 -203.964844 137.023438 -203.480469 142.714844 -202.347656 L 158.0625 -199.292969 L 153.019531 -116.019531 L 132.085938 -121.234375 C 129.632812 -121.84375 126.355469 -122.109375 122.253906 -122.03125 C 111.246094 -121.8125 103.132812 -119.203125 97.914062 -114.207031 C 95.625 -112.015625 93.921875 -109.386719 92.800781 -106.320312 C 91.492188 -102.742188 90.890625 -98.453125 90.988281 -93.445312 L 93.152344 16.097656 L 8.183594 17.777344 L 3.917969 -198.089844 L 73.1875 -199.457031 L 84.59375 -155.640625 L 67.238281 -151.121094 L 66.886719 -169.050781 L 69.300781 -169.101562 L 69.65625 -151.167969 L 53.792969 -159.539062 C 60.566406 -172.378906 69.878906 -182.816406 81.726562 -190.851562 C 94.035156 -199.199219 107.542969 -203.519531 122.25 -203.808594 Z M 122.957031 -167.949219 C 115.335938 -167.796875 108.304688 -165.535156 101.859375 -161.164062 C 94.953125 -156.480469 89.503906 -150.359375 85.515625 -142.800781 L 80.582031 -133.449219 L 53.449219 -132.910156 L 42.039062 -176.730469 L 59.394531 -181.246094 L 59.75 -163.316406 L 22.558594 -162.582031 L 22.203125 -180.511719 L 40.132812 -180.867188 L 43.691406 -0.863281 L 25.761719 -0.507812 L 25.40625 -18.441406 L 74.511719 -19.410156 L 74.867188 -1.480469 L 56.9375 -1.125 L 55.125 -92.738281 C 54.9375 -102.21875 56.265625 -110.851562 59.113281 -118.632812 C 62.140625 -126.921875 66.804688 -134.082031 73.109375 -140.117188 C 85.066406 -151.5625 101.210938 -157.488281 121.546875 -157.890625 C 128.820312 -158.035156 135.226562 -157.417969 140.757812 -156.039062 L 136.421875 -138.636719 L 118.523438 -139.722656 L 121.316406 -185.839844 L 139.214844 -184.757812 L 135.71875 -167.167969 C 132.570312 -167.792969 128.316406 -168.054688 122.957031 -167.949219 Z M 122.957031 -167.949219 "/></g></g></g><g fill="#000000" fill-opacity="1"><g transform="translate(674.120335, 352.28114)"><g><path d="M -0.636719 -197.972656 L 66.050781 -198.1875 L 104.496094 -84.785156 C 107.878906 -74.625 110.1875 -62.847656 111.429688 -49.457031 L 93.570312 -47.804688 L 93.511719 -65.742188 L 94.480469 -65.742188 L 94.535156 -47.808594 L 76.699219 -49.65625 C 77.984375 -62.101562 80.5625 -73.871094 84.421875 -84.96875 L 121.332031 -198.363281 L 212.851562 -198.65625 L 128.320312 28.914062 C 120.164062 51.097656 108.164062 67.945312 92.320312 79.464844 C 76.285156 91.117188 57.695312 96.980469 36.546875 97.046875 C 26.742188 97.078125 17.113281 96.054688 7.660156 93.96875 L -6.371094 90.878906 L -6.613281 14.875 L 15.460938 20.019531 C 20.015625 21.078125 25.082031 21.601562 30.667969 21.582031 C 35.09375 21.566406 38.898438 20.25 42.082031 17.628906 C 45.921875 14.46875 49.101562 9.136719 51.628906 1.628906 L 54.433594 -7.042969 L 71.496094 -1.519531 L 54.867188 5.195312 L -27.125 -197.886719 Z M -0.519531 -162.101562 L -0.578125 -180.039062 L 16.050781 -186.75 L 90.5625 -2.191406 L 85.625 13.066406 C 80.917969 27.054688 74.003906 37.804688 64.886719 45.316406 C 55.113281 53.363281 43.746094 57.410156 30.78125 57.449219 C 22.410156 57.476562 14.589844 56.644531 7.324219 54.953125 L 11.394531 37.484375 L 29.328125 37.425781 L 29.453125 76.398438 L 11.519531 76.457031 L 15.375 58.941406 C 22.25 60.457031 29.269531 61.203125 36.429688 61.179688 C 49.847656 61.136719 61.449219 57.558594 71.230469 50.449219 C 81.199219 43.203125 89.019531 31.863281 94.699219 16.425781 L 170.214844 -186.882812 L 187.027344 -180.640625 L 187.085938 -162.707031 L 134.425781 -162.535156 L 134.371094 -180.472656 L 151.421875 -174.917969 L 118.296875 -73.175781 C 115.351562 -64.710938 113.378906 -55.640625 112.375 -45.960938 L 110.714844 -29.925781 L 77.222656 -29.820312 L 75.710938 -46.152344 C 74.726562 -56.804688 73 -65.84375 70.527344 -73.269531 L 36.222656 -174.453125 L 53.207031 -180.210938 L 53.265625 -162.277344 Z M -0.519531 -162.101562 "/></g></g></g><g fill="#000000" fill-opacity="1"><g transform="translate(859.949672, 351.980442)"><g><path d="M 10.765625 -268.40625 L 95.742188 -267.476562 L 92.613281 18.945312 L 7.636719 18.019531 Z M 46.238281 -232.148438 L 43.894531 -17.457031 L 57.140625 -17.3125 L 59.484375 -232 Z M 46.238281 -232.148438 "/></g></g></g><g fill="#000000" fill-opacity="1"><g transform="translate(958.769637, 352.686256)"><g><path d="M 123.175781 9.652344 L 114.304688 -15.0625 L 131.183594 -21.121094 L 130.726562 -3.191406 L 129.4375 -3.226562 L 129.898438 -21.15625 L 143.652344 -9.648438 C 133.292969 2.738281 122.375 11.394531 110.902344 16.324219 C 99.644531 21.15625 85.679688 23.359375 69.003906 22.929688 C 58.261719 22.65625 48.542969 20.8125 39.847656 17.402344 C 30.652344 13.796875 22.722656 8.507812 16.0625 1.535156 C 2.957031 -12.191406 -3.300781 -30.660156 -2.703125 -53.875 C -2.390625 -66.117188 0.132812 -76.917969 4.871094 -86.273438 C 9.863281 -96.136719 17.125 -104.128906 26.660156 -110.25 C 43.152344 -120.835938 66.597656 -126.28125 97 -126.59375 L 128.34375 -126.757812 L 128.441406 -108.824219 L 110.511719 -109.285156 L 110.714844 -117.171875 C 110.78125 -119.75 110.570312 -121.820312 110.082031 -123.375 C 109.855469 -124.105469 109.597656 -124.617188 109.308594 -124.914062 C 108.980469 -125.253906 108.394531 -125.570312 107.554688 -125.867188 C 105.871094 -126.464844 103.644531 -126.796875 100.875 -126.871094 C 89.042969 -127.171875 74.484375 -123.71875 57.191406 -116.507812 L 41.210938 -109.839844 L 11.292969 -175.035156 L 26.976562 -182.734375 C 50.605469 -194.339844 76.5 -199.78125 104.65625 -199.058594 C 133.066406 -198.332031 155.1875 -191.152344 171.027344 -177.523438 C 179.664062 -170.097656 186.023438 -160.90625 190.113281 -149.945312 C 193.9375 -139.699219 195.683594 -128.050781 195.347656 -115 L 191.8125 22.859375 L 127.324219 21.207031 Z M 156.933594 -2.46875 L 140.054688 3.589844 L 140.515625 -14.335938 L 174.804688 -13.457031 L 174.34375 4.472656 L 156.417969 4.011719 L 159.492188 -115.921875 C 159.707031 -124.335938 158.714844 -131.5 156.507812 -137.40625 C 154.570312 -142.605469 151.609375 -146.914062 147.636719 -150.335938 C 138.257812 -158.402344 123.625 -162.691406 103.738281 -163.203125 C 81.457031 -163.773438 61.136719 -159.554688 42.785156 -150.539062 L 34.878906 -166.636719 L 51.179688 -174.117188 L 66.589844 -140.539062 L 50.289062 -133.058594 L 43.386719 -149.609375 C 65.390625 -158.789062 84.859375 -163.160156 101.792969 -162.726562 C 116 -162.363281 127.078125 -158.09375 135.023438 -149.917969 C 143.085938 -141.628906 146.933594 -130.40625 146.570312 -116.253906 L 145.921875 -90.980469 L 97.367188 -90.726562 C 85.136719 -90.601562 74.558594 -89.550781 65.640625 -87.570312 C 57.578125 -85.78125 51.042969 -83.277344 46.039062 -80.066406 C 41.980469 -77.460938 38.925781 -74.132812 36.875 -70.078125 C 34.570312 -65.523438 33.328125 -59.816406 33.152344 -52.953125 C 32.8125 -39.679688 35.761719 -29.773438 42 -23.242188 C 48.269531 -16.679688 57.574219 -13.242188 69.921875 -12.925781 C 81.363281 -12.632812 90.304688 -13.867188 96.75 -16.636719 C 102.976562 -19.308594 109.441406 -24.652344 116.140625 -32.660156 L 121.699219 -39.304688 L 143.917969 -38.734375 Z M 127.851562 -62.234375 L 108.839844 -62.078125 C 102.898438 -62.050781 97.863281 -61.59375 93.738281 -60.707031 C 90.503906 -60.007812 88.019531 -59.105469 86.289062 -58 C 85.441406 -57.457031 84.835938 -56.832031 84.472656 -56.132812 C 83.898438 -55.019531 83.585938 -53.421875 83.53125 -51.339844 C 83.5 -50.085938 83.578125 -49.1875 83.769531 -48.648438 C 83.703125 -48.839844 83.542969 -49.050781 83.285156 -49.285156 C 83.238281 -49.328125 83.191406 -49.367188 83.152344 -49.394531 L 83.167969 -49.386719 C 83.347656 -49.289062 83.609375 -49.183594 83.949219 -49.074219 C 85.285156 -48.648438 87.085938 -48.40625 89.355469 -48.351562 C 95.921875 -48.179688 100.917969 -49.660156 104.347656 -52.789062 C 105.898438 -54.207031 107.074219 -55.859375 107.871094 -57.746094 C 108.808594 -59.964844 109.316406 -62.65625 109.398438 -65.820312 L 109.777344 -80.628906 L 127.707031 -80.167969 Z M 146.109375 -98.253906 L 145.253906 -64.898438 C 145.058594 -57.21875 143.613281 -50.1875 140.917969 -43.804688 C 138.082031 -37.085938 133.953125 -31.246094 128.523438 -26.292969 C 123.148438 -21.390625 116.957031 -17.777344 109.949219 -15.457031 C 103.382812 -13.28125 96.210938 -12.292969 88.4375 -12.492188 C 76.015625 -12.8125 66.214844 -16.265625 59.035156 -22.859375 C 54.894531 -26.65625 51.867188 -31.269531 49.949219 -36.699219 C 48.289062 -41.40625 47.527344 -46.589844 47.675781 -52.257812 C 47.867188 -59.835938 49.515625 -66.617188 52.613281 -72.609375 C 55.921875 -79.007812 60.703125 -84.207031 66.949219 -88.207031 C 76.96875 -94.621094 90.835938 -97.867188 108.542969 -97.945312 L 127.558594 -98.101562 Z M 146.109375 -98.253906 "/></g></g></g><g fill="#000000" fill-opacity="1"><g transform="translate(1155.362227, 357.610027)"><g><path d="M 190.925781 26.75 L 123.945312 23.664062 L 129.613281 -99.296875 C 129.847656 -104.390625 129.628906 -108.707031 128.960938 -112.253906 C 128.464844 -114.882812 127.769531 -116.890625 126.875 -118.28125 C 125.902344 -119.792969 123.457031 -120.640625 119.539062 -120.820312 C 115.304688 -121.015625 111.867188 -120.578125 109.238281 -119.503906 C 107.296875 -118.714844 105.691406 -117.453125 104.421875 -115.726562 C 102.550781 -113.183594 100.960938 -109.292969 99.652344 -104.050781 C 98.0625 -97.671875 97.050781 -89.773438 96.617188 -80.34375 L 91.890625 22.1875 L 6.996094 18.277344 L 16.933594 -197.402344 L 85.832031 -194.226562 L 94.492188 -157.769531 L 77.042969 -153.628906 L 77.867188 -171.542969 L 80.601562 -171.417969 L 79.777344 -153.5 L 65.054688 -163.746094 C 72.945312 -175.078125 83.425781 -183.421875 96.5 -188.765625 C 108.742188 -193.773438 122.296875 -195.933594 137.15625 -195.25 C 163.167969 -194.050781 183.007812 -185.621094 196.675781 -169.960938 C 210.144531 -154.53125 216.273438 -133.746094 215.070312 -107.609375 L 208.839844 27.574219 Z M 192.578125 -9.082031 L 191.75 8.835938 L 173.835938 8.007812 L 179.238281 -109.261719 C 180 -125.808594 176.804688 -138.179688 169.652344 -146.375 C 162.699219 -154.34375 151.316406 -158.691406 135.503906 -159.417969 C 125.914062 -159.859375 117.4375 -158.574219 110.074219 -155.566406 C 103.539062 -152.894531 98.347656 -148.792969 94.496094 -143.257812 L 88.84375 -135.128906 L 62.714844 -136.332031 L 54.058594 -172.789062 L 71.507812 -176.933594 L 70.679688 -159.019531 L 33.199219 -160.746094 L 34.023438 -178.660156 L 51.941406 -177.835938 L 43.652344 2.011719 L 25.738281 1.1875 L 26.5625 -16.730469 L 75.628906 -14.46875 L 74.800781 3.445312 L 56.886719 2.621094 L 60.785156 -81.996094 C 61.328125 -93.800781 62.683594 -104.046875 64.851562 -112.730469 C 67.300781 -122.550781 70.859375 -130.632812 75.523438 -136.976562 C 80.789062 -144.136719 87.515625 -149.386719 95.703125 -152.722656 C 103.207031 -155.777344 111.699219 -157.085938 121.191406 -156.648438 C 128.75 -156.300781 135.460938 -154.667969 141.316406 -151.753906 C 147.859375 -148.496094 153.097656 -143.808594 157.035156 -137.691406 C 163.414062 -127.78125 166.214844 -114.433594 165.441406 -97.644531 L 160.601562 7.398438 L 142.6875 6.574219 L 143.511719 -11.339844 Z M 192.578125 -9.082031 "/></g></g></g><g fill="#000000" fill-opacity="1"><g transform="translate(1369.280786, 367.485657)"><g><path d="M 81.171875 26.640625 C 67.835938 25.75 55.949219 22.273438 45.519531 16.21875 C 34.988281 10.105469 26.203125 1.519531 19.164062 -9.535156 C 6.105469 -30.039062 0.679688 -56.761719 2.886719 -89.703125 C 5.125 -123.121094 14.21875 -149.148438 30.164062 -167.78125 C 38.738281 -177.800781 48.734375 -185.132812 60.152344 -189.769531 C 71.429688 -194.351562 83.824219 -196.1875 97.335938 -195.28125 C 111.5 -194.332031 123.976562 -190.640625 134.769531 -184.199219 C 145.746094 -177.648438 154.691406 -168.453125 161.601562 -156.609375 L 146.109375 -147.570312 L 147.308594 -165.464844 L 148.914062 -165.355469 L 147.714844 -147.464844 L 129.898438 -145.402344 C 128.207031 -160.042969 127.75 -173.15625 128.527344 -184.742188 L 133.582031 -260.15625 L 218.535156 -254.464844 L 199.382812 31.335938 L 131.851562 26.8125 L 120.144531 -8.578125 L 137.171875 -14.210938 L 135.972656 3.683594 L 133.882812 3.542969 L 135.082031 -14.351562 L 149.582031 -3.792969 C 141.515625 7.285156 131.609375 15.398438 119.859375 20.546875 C 108.394531 25.570312 95.5 27.601562 81.171875 26.640625 Z M 83.570312 -9.144531 C 92.058594 -8.578125 99.359375 -9.628906 105.464844 -12.304688 C 111.285156 -14.855469 116.324219 -19.058594 120.585938 -24.90625 L 126.410156 -32.90625 L 150.410156 -31.296875 L 162.117188 4.089844 L 145.089844 9.722656 L 146.289062 -8.171875 L 183.886719 -5.652344 L 182.6875 12.242188 L 164.792969 11.042969 L 181.550781 -238.96875 L 199.441406 -237.769531 L 198.242188 -219.875 L 149.078125 -223.167969 L 150.277344 -241.0625 L 168.171875 -239.863281 L 164.316406 -182.34375 C 163.683594 -172.933594 164.089844 -161.992188 165.53125 -149.523438 L 168.003906 -128.128906 L 135.414062 -130.3125 L 130.617188 -138.535156 C 126.816406 -145.054688 122.074219 -150.007812 116.390625 -153.398438 C 110.527344 -156.898438 103.375 -158.929688 94.9375 -159.496094 C 86.921875 -160.03125 79.824219 -159.046875 73.652344 -156.539062 C 67.621094 -154.089844 62.210938 -150.0625 57.417969 -144.460938 C 46.628906 -131.855469 40.382812 -112.804688 38.675781 -87.304688 C 36.992188 -62.191406 40.570312 -42.691406 49.417969 -28.800781 C 53.328125 -22.660156 58.035156 -17.992188 63.53125 -14.800781 C 69.128906 -11.550781 75.808594 -9.667969 83.570312 -9.144531 Z M 103.378906 -47.039062 C 110.1875 -46.582031 114.8125 -47.6875 117.257812 -50.351562 C 118.679688 -51.902344 119.996094 -54.496094 121.195312 -58.136719 C 122.785156 -62.953125 123.945312 -69.054688 124.667969 -76.445312 L 142.515625 -74.699219 L 124.621094 -75.898438 L 124.976562 -81.199219 C 125.539062 -89.570312 125.398438 -96.632812 124.558594 -102.382812 C 123.894531 -106.953125 122.859375 -110.378906 121.457031 -112.65625 C 120.511719 -114.191406 119.179688 -115.398438 117.453125 -116.285156 C 114.960938 -117.570312 111.597656 -118.351562 107.371094 -118.636719 C 104.953125 -118.796875 102.925781 -118.5 101.296875 -117.75 C 99.625 -116.976562 98.027344 -115.578125 96.496094 -113.546875 C 94.460938 -110.84375 92.765625 -107.210938 91.417969 -102.648438 C 89.828125 -97.289062 88.78125 -90.851562 88.28125 -83.335938 C 87.777344 -75.855469 87.960938 -69.421875 88.828125 -64.03125 C 89.546875 -59.5625 90.699219 -55.996094 92.28125 -53.339844 C 93.484375 -51.324219 94.886719 -49.84375 96.488281 -48.890625 C 98.253906 -47.84375 100.550781 -47.226562 103.378906 -47.039062 Z M 100.980469 -11.25 C 92.457031 -11.820312 84.859375 -14.085938 78.1875 -18.042969 C 71.359375 -22.09375 65.789062 -27.738281 61.476562 -34.96875 C 54.050781 -47.417969 51.058594 -64.339844 52.492188 -85.734375 C 53.914062 -106.960938 59.03125 -123.425781 67.847656 -135.125 C 72.992188 -141.957031 79.128906 -147.019531 86.257812 -150.3125 C 93.425781 -153.621094 101.261719 -154.992188 109.769531 -154.421875 C 118.929688 -153.808594 126.960938 -151.730469 133.851562 -148.1875 C 141.515625 -144.25 147.566406 -138.667969 152.007812 -131.449219 C 155.992188 -124.972656 158.671875 -117.011719 160.050781 -107.566406 C 161.257812 -99.296875 161.496094 -89.710938 160.765625 -78.800781 L 160.390625 -73.226562 L 160.367188 -72.953125 C 159.382812 -62.917969 157.679688 -54.226562 155.253906 -46.886719 C 152.441406 -38.367188 148.582031 -31.4375 143.683594 -26.097656 C 138.378906 -20.316406 131.863281 -16.1875 124.132812 -13.707031 C 117.242188 -11.496094 109.527344 -10.675781 100.980469 -11.25 Z M 100.980469 -11.25 "/></g></g></g><g fill="#ffffff" fill-opacity="1"><g transform="translate(22.247422, 380.82605)"><g><path d="M 129.0625 -8 L 61.0625 -188.828125 L 59.609375 -188.75 C 63.972656 -151.375 66.546875 -126.421875 67.328125 -113.890625 L 74.09375 -4.59375 L 29.5625 -1.828125 L 15 -236.8125 L 82.84375 -241.015625 L 149.578125 -64.765625 L 150.546875 -64.828125 L 198.40625 -248.1875 L 266.21875 -252.375 L 280.78125 -17.390625 L 234.328125 -14.515625 L 227.4375 -125.734375 C 227.113281 -130.984375 226.816406 -137.039062 226.546875 -143.90625 C 226.285156 -150.78125 225.882812 -169.046875 225.34375 -198.703125 L 223.890625 -198.609375 L 174.703125 -10.828125 Z M 129.0625 -8 "/></g></g></g><g fill="#ffffff" fill-opacity="1"><g transform="translate(329.523549, 362.443862)"><g><path d="M 140 -5.171875 L 129.59375 -29.28125 L 128.3125 -29.234375 C 120.4375 -18.523438 112.203125 -10.992188 103.609375 -6.640625 C 95.015625 -2.296875 83.691406 0.132812 69.640625 0.65625 C 52.367188 1.289062 38.585938 -3.140625 28.296875 -12.640625 C 18.003906 -22.148438 12.519531 -36.023438 11.84375 -54.265625 C 11.132812 -73.359375 17.296875 -87.679688 30.328125 -97.234375 C 43.359375 -106.785156 63.316406 -112.546875 90.203125 -114.515625 L 121.390625 -116.625 L 121.09375 -124.515625 C 120.414062 -142.753906 110.75 -151.53125 92.09375 -150.84375 C 77.71875 -150.3125 60.976562 -145.34375 41.875 -135.9375 L 24.40625 -168.484375 C 44.707031 -180.085938 67.46875 -186.351562 92.6875 -187.28125 C 116.820312 -188.164062 135.519531 -183.585938 148.78125 -173.546875 C 162.039062 -163.503906 169.066406 -147.757812 169.859375 -126.3125 L 174.28125 -6.421875 Z M 122.4375 -87.984375 L 103.484375 -86.640625 C 89.222656 -85.679688 78.691406 -82.710938 71.890625 -77.734375 C 65.097656 -72.765625 61.878906 -65.457031 62.234375 -55.8125 C 62.742188 -41.96875 70.9375 -35.335938 86.8125 -35.921875 C 98.1875 -36.335938 107.160156 -39.941406 113.734375 -46.734375 C 120.304688 -53.523438 123.390625 -62.335938 122.984375 -73.171875 Z M 122.4375 -87.984375 "/></g></g></g><g fill="#ffffff" fill-opacity="1"><g transform="translate(526.454184, 355.372689)"><g><path d="M 122.59375 -185.890625 C 129.25 -186.015625 134.789062 -185.640625 139.21875 -184.765625 L 136.421875 -138.625 C 132.421875 -139.613281 127.578125 -140.054688 121.890625 -139.953125 C 106.222656 -139.640625 94.09375 -135.375 85.5 -127.15625 C 76.914062 -118.945312 72.765625 -107.59375 73.046875 -93.09375 L 74.859375 -1.484375 L 25.765625 -0.515625 L 22.203125 -180.515625 L 59.390625 -181.25 L 67.234375 -151.125 L 69.65625 -151.171875 C 75.039062 -161.367188 82.421875 -169.644531 91.796875 -176 C 101.171875 -182.363281 111.4375 -185.660156 122.59375 -185.890625 Z M 122.59375 -185.890625 "/></g></g></g><g fill="#ffffff" fill-opacity="1"><g transform="translate(674.120335, 352.28114)"><g><path d="M -0.578125 -180.03125 L 53.203125 -180.203125 L 87.515625 -79.03125 C 90.441406 -70.238281 92.457031 -59.828125 93.5625 -47.796875 L 94.53125 -47.796875 C 95.675781 -58.867188 97.953125 -69.296875 101.359375 -79.078125 L 134.375 -180.46875 L 187.03125 -180.625 L 111.515625 22.671875 C 104.597656 41.472656 94.679688 55.566406 81.765625 64.953125 C 68.859375 74.335938 53.765625 79.0625 36.484375 79.125 C 28.003906 79.144531 19.679688 78.253906 11.515625 76.453125 L 11.390625 37.484375 C 17.296875 38.859375 23.738281 39.535156 30.71875 39.515625 C 39.414062 39.484375 47.003906 36.800781 53.484375 31.46875 C 59.960938 26.132812 65.007812 18.09375 68.625 7.34375 L 71.5 -1.515625 Z M -0.578125 -180.03125 "/></g></g></g><g fill="#ffffff" fill-opacity="1"><g transform="translate(859.949672, 351.980442)"><g><path d="M 74.875 0.8125 L 25.765625 0.28125 L 28.5 -250.265625 L 77.609375 -249.734375 Z M 74.875 0.8125 "/></g></g></g><g fill="#ffffff" fill-opacity="1"><g transform="translate(958.769637, 352.686256)"><g><path d="M 140.046875 3.59375 L 131.171875 -21.125 L 129.890625 -21.15625 C 121.359375 -10.957031 112.664062 -3.957031 103.8125 -0.15625 C 94.96875 3.644531 83.519531 5.363281 69.46875 5 C 52.1875 4.5625 38.707031 -0.71875 29.03125 -10.84375 C 19.351562 -20.96875 14.75 -35.15625 15.21875 -53.40625 C 15.707031 -72.507812 22.75 -86.421875 36.34375 -95.140625 C 49.945312 -103.867188 70.222656 -108.375 97.171875 -108.65625 L 128.4375 -108.828125 L 128.640625 -116.703125 C 129.109375 -134.953125 120.007812 -144.316406 101.34375 -144.796875 C 86.957031 -145.160156 69.9375 -141.242188 50.28125 -133.046875 L 34.875 -166.625 C 55.863281 -176.9375 78.96875 -181.769531 104.1875 -181.125 C 128.332031 -180.5 146.710938 -174.765625 159.328125 -163.921875 C 171.941406 -153.078125 177.972656 -136.921875 177.421875 -115.453125 L 174.34375 4.46875 Z M 127.703125 -80.171875 L 108.703125 -80 C 94.410156 -79.9375 83.710938 -77.632812 76.609375 -73.09375 C 69.515625 -68.5625 65.847656 -61.46875 65.609375 -51.8125 C 65.253906 -37.957031 73.015625 -30.820312 88.890625 -30.40625 C 100.273438 -30.113281 109.457031 -33.15625 116.4375 -39.53125 C 123.414062 -45.90625 127.046875 -54.515625 127.328125 -65.359375 Z M 127.703125 -80.171875 "/></g></g></g><g fill="#ffffff" fill-opacity="1"><g transform="translate(1155.362227, 357.610027)"><g><path d="M 191.75 8.828125 L 142.6875 6.578125 L 147.53125 -98.46875 C 148.125 -111.4375 146.257812 -121.269531 141.9375 -127.96875 C 137.625 -134.675781 130.425781 -138.265625 120.34375 -138.734375 C 106.625 -139.359375 96.492188 -135.226562 89.953125 -126.34375 C 83.421875 -117.457031 79.664062 -102.394531 78.6875 -81.15625 L 74.796875 3.453125 L 25.734375 1.1875 L 34.015625 -178.65625 L 71.5 -176.9375 L 77.03125 -153.609375 L 79.765625 -153.484375 C 85.640625 -161.921875 93.476562 -168.144531 103.28125 -172.15625 C 113.082031 -176.164062 124.09375 -177.890625 136.3125 -177.328125 C 157.226562 -176.359375 172.84375 -169.96875 183.15625 -158.15625 C 193.46875 -146.351562 198.132812 -129.78125 197.15625 -108.4375 Z M 191.75 8.828125 "/></g></g></g><g fill="#ffffff" fill-opacity="1"><g transform="translate(1369.280786, 367.485657)"><g><path d="M 82.359375 8.75 C 61.265625 7.332031 45.238281 -1.972656 34.28125 -19.171875 C 23.332031 -36.367188 18.832031 -59.484375 20.78125 -88.515625 C 22.75 -117.972656 30.414062 -140.507812 43.78125 -156.125 C 57.15625 -171.75 74.609375 -178.835938 96.140625 -177.390625 C 118.734375 -175.878906 135.382812 -165.929688 146.09375 -147.546875 L 147.703125 -147.453125 C 146.140625 -161.015625 145.710938 -173.039062 146.421875 -183.53125 L 150.265625 -241.046875 L 199.4375 -237.75 L 182.6875 12.25 L 145.078125 9.71875 L 137.15625 -14.203125 L 135.078125 -14.34375 C 122.753906 2.582031 105.179688 10.28125 82.359375 8.75 Z M 102.1875 -29.140625 C 114.71875 -28.296875 124.140625 -31.320312 130.453125 -38.21875 C 136.773438 -45.113281 140.796875 -57.273438 142.515625 -74.703125 L 142.859375 -80 C 144.148438 -99.28125 142.101562 -113.296875 136.71875 -122.046875 C 131.34375 -130.796875 121.960938 -135.617188 108.578125 -136.515625 C 97.640625 -137.253906 88.835938 -133.191406 82.171875 -124.328125 C 75.503906 -115.472656 71.578125 -102.207031 70.390625 -84.53125 C 69.203125 -66.863281 71.363281 -53.40625 76.875 -44.15625 C 82.394531 -34.90625 90.832031 -29.898438 102.1875 -29.140625 Z M 102.1875 -29.140625 "/></g></g></g></g></g></svg>