<svg xmlns="http://www.w3.org/2000/svg" xmlns:xlink="http://www.w3.org/1999/xlink" width="878" zoomAndPan="magnify" viewBox="0 0 658.5 170.249993" height="227" preserveAspectRatio="xMidYMid meet" version="1.0"><defs><g/><clipPath id="1a629b7f40"><rect x="0" width="459" y="0" height="135"/></clipPath></defs><g transform="matrix(1, 0, 0, 1, 100, 0)"><g clip-path="url(#1a629b7f40)"><g fill="#000000" fill-opacity="1"><g transform="translate(1.220408, 99.8935)"><g><path d="M 35.320312 2.863281 L 10.285156 -62.554688 L 17.769531 -65.417969 L 17.769531 -57.40625 L 17.363281 -57.40625 L 17.363281 -65.417969 L 25.34375 -66.144531 C 25.835938 -60.71875 26.082031 -54.320312 26.082031 -46.945312 L 26.082031 8.011719 L 2.132812 8.011719 L 2.132812 -81.808594 L 28.574219 -81.808594 L 53.917969 -15.792969 L 46.4375 -12.921875 L 46.4375 -20.933594 L 46.84375 -20.933594 L 46.84375 -12.921875 L 39.371094 -15.816406 L 64.925781 -81.808594 L 91.25 -81.808594 L 91.25 8.011719 L 66.644531 8.011719 L 66.644531 -47.550781 C 66.644531 -53.199219 66.886719 -59.316406 67.371094 -65.90625 L 75.363281 -65.316406 L 75.363281 -57.304688 L 74.957031 -57.304688 L 74.957031 -65.316406 L 82.433594 -62.429688 L 55.214844 8.011719 L 37.292969 8.011719 Z M 50.289062 -2.863281 L 42.804688 0 L 42.804688 -8.011719 L 49.71875 -8.011719 L 49.71875 0 L 42.246094 -2.886719 L 69.464844 -73.328125 L 83.984375 -73.328125 L 83.351562 -64.726562 C 82.894531 -58.53125 82.667969 -52.804688 82.667969 -47.550781 L 82.667969 0 L 74.65625 0 L 74.65625 -8.011719 L 83.238281 -8.011719 L 83.238281 0 L 75.222656 0 L 75.222656 -73.796875 L 83.238281 -73.796875 L 83.238281 -65.785156 L 70.414062 -65.785156 L 70.414062 -73.796875 L 77.886719 -70.902344 L 52.332031 -4.910156 L 40.933594 -4.910156 L 15.589844 -70.925781 L 23.066406 -73.796875 L 23.066406 -65.785156 L 10.144531 -65.785156 L 10.144531 -73.796875 L 18.15625 -73.796875 L 18.15625 0 L 10.144531 0 L 10.144531 -8.011719 L 18.070312 -8.011719 L 18.070312 0 L 10.058594 0 L 10.058594 -46.945312 C 10.058594 -53.835938 9.835938 -59.75 9.386719 -64.691406 L 8.589844 -73.429688 L 23.28125 -73.429688 Z M 50.289062 -2.863281 "/></g></g></g><g fill="#000000" fill-opacity="1"><g transform="translate(94.543095, 99.8935)"><g><path d="M 35.066406 1.65625 L 33.402344 -6.214844 L 41.238281 -7.875 L 41.238281 0.136719 L 40.835938 0.136719 L 40.835938 -7.875 L 47.105469 -2.882812 C 43.535156 1.597656 39.785156 4.71875 35.859375 6.480469 C 32.074219 8.175781 27.558594 9.023438 22.3125 9.023438 C 14.761719 9.023438 8.667969 6.914062 4.027344 2.699219 C 1.535156 0.4375 -0.324219 -2.285156 -1.558594 -5.476562 C -2.699219 -8.414062 -3.265625 -11.6875 -3.265625 -15.292969 C -3.265625 -19.402344 -2.402344 -23.105469 -0.675781 -26.398438 C 1.085938 -29.753906 3.660156 -32.542969 7.054688 -34.765625 C 12.78125 -38.519531 20.867188 -40.554688 31.308594 -40.867188 L 40.679688 -41.171875 L 40.9375 -33.164062 L 32.925781 -33.164062 L 32.925781 -36.597656 C 32.925781 -38.003906 32.796875 -39.144531 32.542969 -40.015625 C 32.417969 -40.441406 32.300781 -40.71875 32.1875 -40.84375 C 32.199219 -40.832031 32.207031 -40.824219 32.21875 -40.8125 L 32.207031 -40.820312 C 32.132812 -40.867188 32.019531 -40.917969 31.871094 -40.96875 C 31.226562 -41.191406 30.328125 -41.304688 29.175781 -41.304688 C 25.792969 -41.304688 21.746094 -40.160156 17.027344 -37.867188 L 9.296875 -34.113281 L 0.859375 -55.121094 L 7.128906 -58.527344 C 10.429688 -60.320312 14.023438 -61.71875 17.902344 -62.726562 C 21.808594 -63.738281 25.734375 -64.242188 29.679688 -64.242188 C 38.359375 -64.242188 45.058594 -62.074219 49.769531 -57.734375 C 54.675781 -53.21875 57.125 -46.5625 57.125 -37.757812 L 57.125 8.011719 L 36.410156 8.011719 Z M 50.742188 -1.65625 L 42.90625 0 L 42.90625 -8.011719 L 49.113281 -8.011719 L 49.113281 0 L 41.101562 0 L 41.101562 -37.757812 C 41.101562 -40.105469 40.847656 -42.039062 40.332031 -43.554688 C 39.976562 -44.609375 39.503906 -45.40625 38.917969 -45.945312 C 38.234375 -46.574219 37.257812 -47.078125 35.996094 -47.457031 C 34.300781 -47.964844 32.195312 -48.21875 29.679688 -48.21875 C 27.097656 -48.21875 24.511719 -47.882812 21.921875 -47.214844 C 19.308594 -46.535156 16.929688 -45.613281 14.777344 -44.445312 L 10.953125 -51.488281 L 18.386719 -54.472656 L 20.960938 -48.0625 L 13.527344 -45.074219 L 10.027344 -52.285156 C 16.953125 -55.644531 23.335938 -57.328125 29.175781 -57.328125 C 32.128906 -57.328125 34.773438 -56.921875 37.117188 -56.109375 C 39.90625 -55.144531 42.230469 -53.632812 44.082031 -51.578125 C 47.328125 -47.984375 48.949219 -42.992188 48.949219 -36.597656 L 48.949219 -25.40625 L 31.789062 -24.851562 C 27.867188 -24.734375 24.5 -24.339844 21.679688 -23.667969 C 19.238281 -23.082031 17.289062 -22.316406 15.835938 -21.363281 C 14.761719 -20.660156 13.988281 -19.855469 13.515625 -18.953125 C 13.007812 -17.992188 12.757812 -16.769531 12.757812 -15.292969 C 12.757812 -13.683594 12.964844 -12.339844 13.382812 -11.257812 C 13.707031 -10.425781 14.179688 -9.726562 14.800781 -9.160156 C 16.386719 -7.722656 18.890625 -7.003906 22.3125 -7.003906 C 25.273438 -7.003906 27.605469 -7.382812 29.308594 -8.144531 C 30.863281 -8.84375 32.617188 -10.414062 34.566406 -12.863281 L 36.972656 -15.886719 L 47.734375 -15.886719 Z M 23.976562 -13.917969 C 27.042969 -13.917969 29.289062 -14.601562 30.71875 -15.976562 C 31.324219 -16.558594 31.789062 -17.28125 32.109375 -18.136719 C 32.519531 -19.238281 32.722656 -20.597656 32.722656 -22.210938 L 32.722656 -27.207031 L 40.734375 -27.207031 L 41.074219 -19.203125 L 32.691406 -18.847656 C 29.796875 -18.746094 27.382812 -18.488281 25.441406 -18.070312 C 23.949219 -17.746094 22.863281 -17.375 22.179688 -16.949219 C 21.957031 -16.808594 21.8125 -16.679688 21.75 -16.558594 C 21.609375 -16.285156 21.539062 -15.832031 21.539062 -15.195312 C 21.539062 -14.703125 21.578125 -14.355469 21.660156 -14.15625 C 21.636719 -14.21875 21.585938 -14.28125 21.511719 -14.34375 C 21.582031 -14.285156 21.722656 -14.222656 21.9375 -14.15625 C 22.453125 -13.996094 23.132812 -13.917969 23.976562 -13.917969 Z M 23.976562 2.105469 C 18.695312 2.105469 14.382812 0.667969 11.046875 -2.210938 C 9.136719 -3.855469 7.714844 -5.863281 6.769531 -8.230469 C 5.933594 -10.335938 5.515625 -12.65625 5.515625 -15.195312 C 5.515625 -18.425781 6.179688 -21.332031 7.511719 -23.910156 C 8.921875 -26.640625 10.988281 -28.855469 13.707031 -30.550781 C 15.96875 -31.957031 18.757812 -33.019531 22.070312 -33.734375 C 24.933594 -34.351562 28.25 -34.726562 32.019531 -34.859375 L 48.746094 -35.5625 L 48.746094 -22.210938 C 48.746094 -18.675781 48.207031 -15.457031 47.128906 -12.550781 C 45.957031 -9.40625 44.1875 -6.695312 41.816406 -4.417969 C 39.488281 -2.179688 36.75 -0.511719 33.601562 0.585938 C 30.699219 1.597656 27.488281 2.105469 23.976562 2.105469 Z M 23.976562 2.105469 "/></g></g></g><g fill="#000000" fill-opacity="1"><g transform="translate(152.030682, 99.8935)"><g><path d="M 34.121094 -64.34375 C 37.125 -64.34375 39.871094 -64.085938 42.359375 -63.574219 L 49.777344 -62.039062 L 46.230469 -38.28125 L 37.847656 -40.128906 C 36.128906 -40.507812 34.683594 -40.699219 33.515625 -40.699219 C 32.480469 -40.699219 31.550781 -40.503906 30.726562 -40.109375 C 29.8125 -39.675781 28.925781 -38.96875 28.0625 -37.984375 C 27.152344 -36.941406 26.46875 -35.773438 26.015625 -34.484375 C 25.523438 -33.078125 25.273438 -31.476562 25.273438 -29.679688 L 25.273438 8.011719 L 0.871094 8.011719 L 0.871094 -63.335938 L 23.097656 -63.335938 L 24.734375 -45.824219 L 16.757812 -45.074219 L 16.757812 -53.089844 L 17.164062 -53.089844 L 17.164062 -45.074219 L 10.203125 -49.042969 C 12.871094 -53.730469 16.171875 -57.398438 20.101562 -60.046875 C 24.351562 -62.910156 29.023438 -64.34375 34.121094 -64.34375 Z M 34.121094 -48.320312 C 32.289062 -48.320312 30.601562 -47.800781 29.0625 -46.761719 C 27.203125 -45.507812 25.558594 -43.625 24.121094 -41.109375 L 21.816406 -37.0625 L 9.460938 -37.0625 L 7.820312 -54.574219 L 15.800781 -55.324219 L 15.800781 -47.3125 L 8.882812 -47.3125 L 8.882812 -55.324219 L 16.894531 -55.324219 L 16.894531 0 L 8.882812 0 L 8.882812 -8.011719 L 17.261719 -8.011719 L 17.261719 0 L 9.25 0 L 9.25 -29.679688 C 9.25 -33.300781 9.800781 -36.671875 10.898438 -39.792969 C 12.03125 -43.027344 13.734375 -45.941406 16.003906 -48.535156 C 18.324219 -51.183594 20.9375 -53.203125 23.851562 -54.585938 C 26.855469 -56.011719 30.074219 -56.722656 33.515625 -56.722656 C 35.847656 -56.722656 38.441406 -56.40625 41.300781 -55.777344 L 39.574219 -47.953125 L 31.648438 -49.136719 L 32.8125 -56.910156 L 40.734375 -55.726562 L 39.113281 -47.878906 C 37.695312 -48.171875 36.03125 -48.320312 34.121094 -48.320312 Z M 34.121094 -48.320312 "/></g></g></g><g fill="#000000" fill-opacity="1"><g transform="translate(194.225252, 99.8935)"><g><path d="M 0.101562 -63.335938 L 14.589844 -63.335938 L 28.679688 -26.648438 C 31.507812 -18.988281 33.28125 -13.355469 34.003906 -9.75 L 26.148438 -8.175781 L 26.148438 -16.1875 L 26.550781 -16.1875 L 26.550781 -8.175781 L 18.789062 -10.15625 C 19.273438 -12.066406 20.246094 -15.191406 21.707031 -19.539062 C 23.125 -23.75 27.710938 -36.585938 35.472656 -58.046875 L 37.382812 -63.335938 L 63.578125 -63.335938 L 35.710938 10.5 C 32.855469 18.050781 29.308594 23.582031 25.078125 27.089844 C 22.742188 29.027344 20.140625 30.480469 17.269531 31.449219 C 14.507812 32.378906 11.546875 32.847656 8.378906 32.847656 C 5.214844 32.847656 2.09375 32.492188 -0.984375 31.785156 L -7.203125 30.355469 L -7.203125 7.316406 L 2.515625 9.433594 C 3.804688 9.714844 5.304688 9.855469 7.015625 9.855469 C 8.042969 9.855469 8.855469 9.621094 9.457031 9.148438 C 10.347656 8.449219 11.140625 7.175781 11.84375 5.328125 L 14.949219 -2.613281 L 22.410156 0.304688 L 14.976562 3.285156 L -11.746094 -63.335938 Z M 0.101562 -47.3125 L 0.101562 -55.324219 L 7.535156 -58.304688 L 31.027344 0.265625 L 26.820312 11.023438 C 25.066406 15.640625 22.582031 19.210938 19.367188 21.742188 C 15.859375 24.5 11.742188 25.878906 7.015625 25.878906 C 4.152344 25.878906 1.511719 25.617188 -0.898438 25.089844 L 0.808594 17.261719 L 8.820312 17.261719 L 8.820312 23.976562 L 0.808594 23.976562 L 2.601562 16.167969 C 4.5 16.605469 6.425781 16.824219 8.378906 16.824219 C 9.789062 16.824219 11.046875 16.636719 12.144531 16.265625 C 13.136719 15.929688 14.039062 15.425781 14.851562 14.753906 C 15.757812 14.003906 16.667969 12.890625 17.585938 11.417969 C 18.683594 9.652344 19.730469 7.460938 20.722656 4.84375 L 44.496094 -58.152344 L 51.992188 -55.324219 L 51.992188 -47.3125 L 43.007812 -47.3125 L 43.007812 -55.324219 L 50.539062 -52.597656 C 42.820312 -31.253906 38.273438 -18.53125 36.898438 -14.433594 C 35.5625 -10.464844 34.703125 -7.722656 34.316406 -6.199219 L 32.777344 -0.164062 L 19.578125 -0.164062 L 18.289062 -6.605469 C 17.734375 -9.394531 16.210938 -14.160156 13.722656 -20.902344 L 1.605469 -52.449219 L 9.085938 -55.324219 L 9.085938 -47.3125 Z M 0.101562 -47.3125 "/></g></g></g><g fill="#000000" fill-opacity="1"><g transform="translate(246.312327, 99.8935)"><g><path d="M 0.871094 -86.554688 L 25.273438 -86.554688 L 25.273438 8.011719 L 0.871094 8.011719 Z M 0.871094 -86.554688 "/></g></g></g><g fill="#000000" fill-opacity="1"><g transform="translate(272.456809, 99.8935)"><g><path d="M 35.066406 1.65625 L 33.402344 -6.214844 L 41.238281 -7.875 L 41.238281 0.136719 L 40.835938 0.136719 L 40.835938 -7.875 L 47.105469 -2.882812 C 43.535156 1.597656 39.785156 4.71875 35.859375 6.480469 C 32.074219 8.175781 27.558594 9.023438 22.3125 9.023438 C 14.761719 9.023438 8.667969 6.914062 4.027344 2.699219 C 1.535156 0.4375 -0.324219 -2.285156 -1.558594 -5.476562 C -2.699219 -8.414062 -3.265625 -11.6875 -3.265625 -15.292969 C -3.265625 -19.402344 -2.402344 -23.105469 -0.675781 -26.398438 C 1.085938 -29.753906 3.660156 -32.542969 7.054688 -34.765625 C 12.78125 -38.519531 20.867188 -40.554688 31.308594 -40.867188 L 40.679688 -41.171875 L 40.9375 -33.164062 L 32.925781 -33.164062 L 32.925781 -36.597656 C 32.925781 -38.003906 32.796875 -39.144531 32.542969 -40.015625 C 32.417969 -40.441406 32.300781 -40.71875 32.1875 -40.84375 C 32.199219 -40.832031 32.207031 -40.824219 32.21875 -40.8125 L 32.207031 -40.820312 C 32.132812 -40.867188 32.019531 -40.917969 31.871094 -40.96875 C 31.226562 -41.191406 30.328125 -41.304688 29.175781 -41.304688 C 25.792969 -41.304688 21.746094 -40.160156 17.027344 -37.867188 L 9.296875 -34.113281 L 0.859375 -55.121094 L 7.128906 -58.527344 C 10.429688 -60.320312 14.023438 -61.71875 17.902344 -62.726562 C 21.808594 -63.738281 25.734375 -64.242188 29.679688 -64.242188 C 38.359375 -64.242188 45.058594 -62.074219 49.769531 -57.734375 C 54.675781 -53.21875 57.125 -46.5625 57.125 -37.757812 L 57.125 8.011719 L 36.410156 8.011719 Z M 50.742188 -1.65625 L 42.90625 0 L 42.90625 -8.011719 L 49.113281 -8.011719 L 49.113281 0 L 41.101562 0 L 41.101562 -37.757812 C 41.101562 -40.105469 40.847656 -42.039062 40.332031 -43.554688 C 39.976562 -44.609375 39.503906 -45.40625 38.917969 -45.945312 C 38.234375 -46.574219 37.257812 -47.078125 35.996094 -47.457031 C 34.300781 -47.964844 32.195312 -48.21875 29.679688 -48.21875 C 27.097656 -48.21875 24.511719 -47.882812 21.921875 -47.214844 C 19.308594 -46.535156 16.929688 -45.613281 14.777344 -44.445312 L 10.953125 -51.488281 L 18.386719 -54.472656 L 20.960938 -48.0625 L 13.527344 -45.074219 L 10.027344 -52.285156 C 16.953125 -55.644531 23.335938 -57.328125 29.175781 -57.328125 C 32.128906 -57.328125 34.773438 -56.921875 37.117188 -56.109375 C 39.90625 -55.144531 42.230469 -53.632812 44.082031 -51.578125 C 47.328125 -47.984375 48.949219 -42.992188 48.949219 -36.597656 L 48.949219 -25.40625 L 31.789062 -24.851562 C 27.867188 -24.734375 24.5 -24.339844 21.679688 -23.667969 C 19.238281 -23.082031 17.289062 -22.316406 15.835938 -21.363281 C 14.761719 -20.660156 13.988281 -19.855469 13.515625 -18.953125 C 13.007812 -17.992188 12.757812 -16.769531 12.757812 -15.292969 C 12.757812 -13.683594 12.964844 -12.339844 13.382812 -11.257812 C 13.707031 -10.425781 14.179688 -9.726562 14.800781 -9.160156 C 16.386719 -7.722656 18.890625 -7.003906 22.3125 -7.003906 C 25.273438 -7.003906 27.605469 -7.382812 29.308594 -8.144531 C 30.863281 -8.84375 32.617188 -10.414062 34.566406 -12.863281 L 36.972656 -15.886719 L 47.734375 -15.886719 Z M 23.976562 -13.917969 C 27.042969 -13.917969 29.289062 -14.601562 30.71875 -15.976562 C 31.324219 -16.558594 31.789062 -17.28125 32.109375 -18.136719 C 32.519531 -19.238281 32.722656 -20.597656 32.722656 -22.210938 L 32.722656 -27.207031 L 40.734375 -27.207031 L 41.074219 -19.203125 L 32.691406 -18.847656 C 29.796875 -18.746094 27.382812 -18.488281 25.441406 -18.070312 C 23.949219 -17.746094 22.863281 -17.375 22.179688 -16.949219 C 21.957031 -16.808594 21.8125 -16.679688 21.75 -16.558594 C 21.609375 -16.285156 21.539062 -15.832031 21.539062 -15.195312 C 21.539062 -14.703125 21.578125 -14.355469 21.660156 -14.15625 C 21.636719 -14.21875 21.585938 -14.28125 21.511719 -14.34375 C 21.582031 -14.285156 21.722656 -14.222656 21.9375 -14.15625 C 22.453125 -13.996094 23.132812 -13.917969 23.976562 -13.917969 Z M 23.976562 2.105469 C 18.695312 2.105469 14.382812 0.667969 11.046875 -2.210938 C 9.136719 -3.855469 7.714844 -5.863281 6.769531 -8.230469 C 5.933594 -10.335938 5.515625 -12.65625 5.515625 -15.195312 C 5.515625 -18.425781 6.179688 -21.332031 7.511719 -23.910156 C 8.921875 -26.640625 10.988281 -28.855469 13.707031 -30.550781 C 15.96875 -31.957031 18.757812 -33.019531 22.070312 -33.734375 C 24.933594 -34.351562 28.25 -34.726562 32.019531 -34.859375 L 48.746094 -35.5625 L 48.746094 -22.210938 C 48.746094 -18.675781 48.207031 -15.457031 47.128906 -12.550781 C 45.957031 -9.40625 44.1875 -6.695312 41.816406 -4.417969 C 39.488281 -2.179688 36.75 -0.511719 33.601562 0.585938 C 30.699219 1.597656 27.488281 2.105469 23.976562 2.105469 Z M 23.976562 2.105469 "/></g></g></g><g fill="#000000" fill-opacity="1"><g transform="translate(329.944416, 99.8935)"><g><path d="M 38.730469 0 L 38.730469 -35.789062 C 38.730469 -37.246094 38.589844 -38.4375 38.308594 -39.355469 C 38.152344 -39.871094 37.976562 -40.234375 37.777344 -40.445312 C 37.664062 -40.570312 37.433594 -40.691406 37.097656 -40.808594 C 36.335938 -41.070312 35.3125 -41.203125 34.019531 -41.203125 C 30.683594 -41.203125 28.46875 -40.566406 27.375 -39.296875 C 26.835938 -38.667969 26.386719 -37.664062 26.027344 -36.277344 C 25.523438 -34.359375 25.273438 -31.941406 25.273438 -29.023438 L 25.273438 8.011719 L 0.871094 8.011719 L 0.871094 -63.335938 L 22.398438 -63.335938 L 24.945312 -49.171875 L 17.0625 -47.75 L 17.0625 -55.761719 L 17.464844 -55.761719 L 17.464844 -47.75 L 10.683594 -52.019531 C 13.21875 -56.042969 16.71875 -59.132812 21.195312 -61.296875 C 25.390625 -63.328125 30.003906 -64.34375 35.03125 -64.34375 C 43.835938 -64.34375 50.691406 -62 55.605469 -57.304688 C 60.625 -52.515625 63.132812 -45.441406 63.132812 -36.089844 L 63.132812 8.011719 L 38.730469 8.011719 Z M 54.753906 0 L 46.742188 0 L 46.742188 -8.011719 L 55.121094 -8.011719 L 55.121094 0 L 47.109375 0 L 47.109375 -36.089844 C 47.109375 -38.773438 46.820312 -40.992188 46.246094 -42.753906 C 45.820312 -44.050781 45.253906 -45.035156 44.539062 -45.71875 C 42.722656 -47.453125 39.554688 -48.320312 35.03125 -48.320312 C 32.453125 -48.320312 30.164062 -47.839844 28.171875 -46.875 C 26.453125 -46.042969 25.144531 -44.914062 24.246094 -43.480469 L 21.886719 -39.738281 L 10.363281 -39.738281 L 7.8125 -53.902344 L 15.699219 -55.324219 L 15.699219 -47.3125 L 8.882812 -47.3125 L 8.882812 -55.324219 L 16.894531 -55.324219 L 16.894531 0 L 8.882812 0 L 8.882812 -8.011719 L 17.261719 -8.011719 L 17.261719 0 L 9.25 0 L 9.25 -29.023438 C 9.25 -33.308594 9.675781 -37.074219 10.519531 -40.320312 C 11.503906 -44.101562 13.074219 -47.242188 15.226562 -49.746094 C 17.476562 -52.359375 20.308594 -54.296875 23.726562 -55.558594 C 26.742188 -56.671875 30.171875 -57.226562 34.019531 -57.226562 C 37.105469 -57.226562 39.875 -56.804688 42.328125 -55.953125 C 45.203125 -54.960938 47.609375 -53.417969 49.546875 -51.320312 C 53.019531 -47.566406 54.753906 -42.386719 54.753906 -35.789062 Z M 54.753906 0 "/></g></g></g><g fill="#000000" fill-opacity="1"><g transform="translate(393.387656, 99.8935)"><g><path d="M 46.539062 0.59375 L 46.085938 0.59375 L 46.085938 -7.421875 L 52.683594 -2.875 C 49.949219 1.09375 46.503906 4.089844 42.339844 6.109375 C 38.34375 8.050781 33.800781 9.023438 28.722656 9.023438 C 23.980469 9.023438 19.691406 8.175781 15.851562 6.488281 C 11.855469 4.734375 8.445312 2.117188 5.621094 -1.355469 C 0.402344 -7.777344 -2.207031 -16.492188 -2.207031 -27.511719 C -2.207031 -38.503906 0.398438 -47.253906 5.605469 -53.765625 C 8.429688 -57.296875 11.835938 -59.957031 15.824219 -61.75 C 19.675781 -63.480469 23.976562 -64.34375 28.722656 -64.34375 C 33.675781 -64.34375 38.132812 -63.40625 42.09375 -61.527344 C 46.191406 -59.589844 49.640625 -56.710938 52.441406 -52.898438 L 45.984375 -48.15625 L 45.984375 -56.167969 L 46.640625 -56.167969 L 46.640625 -48.15625 L 38.660156 -47.449219 L 38.292969 -51.582031 L 38.074219 -55.820312 L 38.074219 -86.554688 L 62.476562 -86.554688 L 62.476562 8.011719 L 40.75 8.011719 L 38.617188 -6.234375 L 46.539062 -7.421875 Z M 53.441406 -15.433594 L 55.574219 -1.1875 L 47.648438 0 L 47.648438 -8.011719 L 54.464844 -8.011719 L 54.464844 0 L 46.453125 0 L 46.453125 -78.542969 L 54.464844 -78.542969 L 54.464844 -70.53125 L 46.085938 -70.53125 L 46.085938 -78.542969 L 54.097656 -78.542969 L 54.097656 -56.03125 L 46.085938 -56.03125 L 54.085938 -56.445312 L 54.289062 -52.558594 L 46.289062 -52.144531 L 54.269531 -52.851562 L 55.394531 -40.144531 L 41.929688 -40.144531 L 39.527344 -43.410156 C 38.324219 -45.050781 36.894531 -46.261719 35.234375 -47.046875 C 33.445312 -47.894531 31.273438 -48.320312 28.722656 -48.320312 C 26.265625 -48.320312 24.152344 -47.921875 22.386719 -47.128906 C 20.753906 -46.398438 19.332031 -45.273438 18.117188 -43.753906 C 15.25 -40.171875 13.816406 -34.753906 13.816406 -27.511719 C 13.816406 -20.289062 15.230469 -14.9375 18.054688 -11.464844 C 19.25 -9.992188 20.664062 -8.898438 22.296875 -8.179688 C 24.085938 -7.394531 26.226562 -7.003906 28.722656 -7.003906 C 31.347656 -7.003906 33.554688 -7.4375 35.34375 -8.304688 C 36.96875 -9.09375 38.351562 -10.316406 39.488281 -11.964844 L 41.875 -15.433594 Z M 29.78125 -14.019531 C 31.671875 -14.019531 33.203125 -14.238281 34.367188 -14.675781 C 35.109375 -14.953125 35.667969 -15.324219 36.050781 -15.78125 C 36.574219 -16.417969 37.011719 -17.414062 37.359375 -18.765625 C 37.835938 -20.625 38.074219 -22.949219 38.074219 -25.742188 L 38.074219 -27.511719 C 38.074219 -30.816406 37.816406 -33.570312 37.304688 -35.769531 C 36.917969 -37.421875 36.433594 -38.621094 35.851562 -39.371094 C 34.847656 -40.660156 32.792969 -41.304688 29.679688 -41.304688 C 28.503906 -41.304688 27.542969 -41.117188 26.804688 -40.738281 C 26.144531 -40.40625 25.546875 -39.847656 25.015625 -39.070312 C 24.261719 -37.964844 23.675781 -36.542969 23.253906 -34.792969 C 22.75 -32.71875 22.5 -30.253906 22.5 -27.410156 C 22.5 -24.515625 22.746094 -22.046875 23.246094 -20 C 23.644531 -18.347656 24.191406 -17.042969 24.875 -16.085938 C 25.367188 -15.40625 25.941406 -14.910156 26.597656 -14.597656 C 27.414062 -14.210938 28.476562 -14.019531 29.78125 -14.019531 Z M 29.78125 2.003906 C 26.074219 2.003906 22.726562 1.296875 19.742188 -0.117188 C 16.59375 -1.605469 13.972656 -3.808594 11.871094 -6.726562 C 8.273438 -11.726562 6.476562 -18.621094 6.476562 -27.410156 C 6.476562 -36.023438 8.242188 -42.921875 11.78125 -48.105469 C 13.859375 -51.144531 16.445312 -53.453125 19.546875 -55.027344 C 22.566406 -56.5625 25.945312 -57.328125 29.679688 -57.328125 C 33.574219 -57.328125 37.042969 -56.714844 40.082031 -55.492188 C 43.5 -54.121094 46.304688 -52.027344 48.496094 -49.21875 C 50.519531 -46.617188 51.992188 -43.347656 52.910156 -39.40625 C 53.703125 -36.007812 54.097656 -32.042969 54.097656 -27.511719 L 54.097656 -25.742188 C 54.097656 -21.605469 53.691406 -17.953125 52.882812 -14.789062 C 51.941406 -11.121094 50.445312 -8.046875 48.398438 -5.570312 C 46.203125 -2.917969 43.402344 -0.949219 39.996094 0.328125 C 37.015625 1.445312 33.609375 2.003906 29.78125 2.003906 Z M 29.78125 2.003906 "/></g></g></g><g fill="#ffffff" fill-opacity="1"><g transform="translate(1.220408, 99.8935)"><g><path d="M 42.796875 0 L 17.765625 -65.421875 L 17.359375 -65.421875 C 17.835938 -60.234375 18.078125 -54.070312 18.078125 -46.9375 L 18.078125 0 L 10.140625 0 L 10.140625 -73.796875 L 23.0625 -73.796875 L 46.4375 -12.921875 L 46.84375 -12.921875 L 70.421875 -73.796875 L 83.234375 -73.796875 L 83.234375 0 L 74.65625 0 L 74.65625 -47.546875 C 74.65625 -52.992188 74.890625 -58.914062 75.359375 -65.3125 L 74.953125 -65.3125 L 49.71875 0 Z M 42.796875 0 "/></g></g></g><g fill="#ffffff" fill-opacity="1"><g transform="translate(94.543095, 99.8935)"><g><path d="M 42.90625 0 L 41.234375 -7.875 L 40.828125 -7.875 C 38.078125 -4.40625 35.328125 -2.054688 32.578125 -0.828125 C 29.835938 0.398438 26.414062 1.015625 22.3125 1.015625 C 16.820312 1.015625 12.519531 -0.394531 9.40625 -3.21875 C 6.300781 -6.050781 4.75 -10.078125 4.75 -15.296875 C 4.75 -26.460938 13.679688 -32.316406 31.546875 -32.859375 L 40.9375 -33.15625 L 40.9375 -36.59375 C 40.9375 -40.9375 40 -44.140625 38.125 -46.203125 C 36.257812 -48.273438 33.273438 -49.3125 29.171875 -49.3125 C 24.566406 -49.3125 19.351562 -47.898438 13.53125 -45.078125 L 10.953125 -51.484375 C 13.679688 -52.960938 16.664062 -54.125 19.90625 -54.96875 C 23.15625 -55.8125 26.414062 -56.234375 29.6875 -56.234375 C 36.28125 -56.234375 41.164062 -54.769531 44.34375 -51.84375 C 47.519531 -48.914062 49.109375 -44.21875 49.109375 -37.75 L 49.109375 0 Z M 23.96875 -5.90625 C 29.1875 -5.90625 33.285156 -7.332031 36.265625 -10.1875 C 39.242188 -13.050781 40.734375 -17.054688 40.734375 -22.203125 L 40.734375 -27.203125 L 32.359375 -26.859375 C 25.691406 -26.617188 20.882812 -25.582031 17.9375 -23.75 C 15 -21.914062 13.53125 -19.0625 13.53125 -15.1875 C 13.53125 -12.164062 14.445312 -9.863281 16.28125 -8.28125 C 18.113281 -6.695312 20.675781 -5.90625 23.96875 -5.90625 Z M 23.96875 -5.90625 "/></g></g></g><g fill="#ffffff" fill-opacity="1"><g transform="translate(152.030682, 99.8935)"><g><path d="M 34.125 -56.328125 C 36.582031 -56.328125 38.785156 -56.125 40.734375 -55.71875 L 39.578125 -47.953125 C 37.285156 -48.453125 35.265625 -48.703125 33.515625 -48.703125 C 29.035156 -48.703125 25.207031 -46.882812 22.03125 -43.25 C 18.851562 -39.625 17.265625 -35.101562 17.265625 -29.6875 L 17.265625 0 L 8.890625 0 L 8.890625 -55.328125 L 15.796875 -55.328125 L 16.765625 -45.078125 L 17.15625 -45.078125 C 19.207031 -48.671875 21.679688 -51.441406 24.578125 -53.390625 C 27.472656 -55.347656 30.65625 -56.328125 34.125 -56.328125 Z M 34.125 -56.328125 "/></g></g></g><g fill="#ffffff" fill-opacity="1"><g transform="translate(194.225252, 99.8935)"><g><path d="M 0.09375 -55.328125 L 9.078125 -55.328125 L 21.203125 -23.78125 C 23.859375 -16.570312 25.503906 -11.367188 26.140625 -8.171875 L 26.546875 -8.171875 C 26.984375 -9.890625 27.898438 -12.828125 29.296875 -16.984375 C 30.691406 -21.140625 35.257812 -33.921875 43 -55.328125 L 51.984375 -55.328125 L 28.21875 7.671875 C 25.863281 13.898438 23.113281 18.316406 19.96875 20.921875 C 16.820312 23.523438 12.957031 24.828125 8.375 24.828125 C 5.820312 24.828125 3.300781 24.539062 0.8125 23.96875 L 0.8125 17.265625 C 2.65625 17.671875 4.722656 17.875 7.015625 17.875 C 12.765625 17.875 16.867188 14.640625 19.328125 8.171875 L 22.40625 0.296875 Z M 0.09375 -55.328125 "/></g></g></g><g fill="#ffffff" fill-opacity="1"><g transform="translate(246.312327, 99.8935)"><g><path d="M 17.265625 0 L 8.890625 0 L 8.890625 -78.546875 L 17.265625 -78.546875 Z M 17.265625 0 "/></g></g></g><g fill="#ffffff" fill-opacity="1"><g transform="translate(272.456809, 99.8935)"><g><path d="M 42.90625 0 L 41.234375 -7.875 L 40.828125 -7.875 C 38.078125 -4.40625 35.328125 -2.054688 32.578125 -0.828125 C 29.835938 0.398438 26.414062 1.015625 22.3125 1.015625 C 16.820312 1.015625 12.519531 -0.394531 9.40625 -3.21875 C 6.300781 -6.050781 4.75 -10.078125 4.75 -15.296875 C 4.75 -26.460938 13.679688 -32.316406 31.546875 -32.859375 L 40.9375 -33.15625 L 40.9375 -36.59375 C 40.9375 -40.9375 40 -44.140625 38.125 -46.203125 C 36.257812 -48.273438 33.273438 -49.3125 29.171875 -49.3125 C 24.566406 -49.3125 19.351562 -47.898438 13.53125 -45.078125 L 10.953125 -51.484375 C 13.679688 -52.960938 16.664062 -54.125 19.90625 -54.96875 C 23.15625 -55.8125 26.414062 -56.234375 29.6875 -56.234375 C 36.28125 -56.234375 41.164062 -54.769531 44.34375 -51.84375 C 47.519531 -48.914062 49.109375 -44.21875 49.109375 -37.75 L 49.109375 0 Z M 23.96875 -5.90625 C 29.1875 -5.90625 33.285156 -7.332031 36.265625 -10.1875 C 39.242188 -13.050781 40.734375 -17.054688 40.734375 -22.203125 L 40.734375 -27.203125 L 32.359375 -26.859375 C 25.691406 -26.617188 20.882812 -25.582031 17.9375 -23.75 C 15 -21.914062 13.53125 -19.0625 13.53125 -15.1875 C 13.53125 -12.164062 14.445312 -9.863281 16.28125 -8.28125 C 18.113281 -6.695312 20.675781 -5.90625 23.96875 -5.90625 Z M 23.96875 -5.90625 "/></g></g></g><g fill="#ffffff" fill-opacity="1"><g transform="translate(329.944416, 99.8935)"><g><path d="M 46.734375 0 L 46.734375 -35.78125 C 46.734375 -40.289062 45.707031 -43.65625 43.65625 -45.875 C 41.601562 -48.101562 38.390625 -49.21875 34.015625 -49.21875 C 28.234375 -49.21875 23.992188 -47.648438 21.296875 -44.515625 C 18.609375 -41.390625 17.265625 -36.226562 17.265625 -29.03125 L 17.265625 0 L 8.890625 0 L 8.890625 -55.328125 L 15.703125 -55.328125 L 17.0625 -47.75 L 17.46875 -47.75 C 19.175781 -50.476562 21.578125 -52.585938 24.671875 -54.078125 C 27.773438 -55.578125 31.226562 -56.328125 35.03125 -56.328125 C 41.695312 -56.328125 46.710938 -54.71875 50.078125 -51.5 C 53.441406 -48.289062 55.125 -43.15625 55.125 -36.09375 L 55.125 0 Z M 46.734375 0 "/></g></g></g><g fill="#ffffff" fill-opacity="1"><g transform="translate(393.387656, 99.8935)"><g><path d="M 46.53125 -7.421875 L 46.078125 -7.421875 C 42.210938 -1.796875 36.425781 1.015625 28.71875 1.015625 C 21.488281 1.015625 15.863281 -1.457031 11.84375 -6.40625 C 7.820312 -11.351562 5.8125 -18.390625 5.8125 -27.515625 C 5.8125 -36.628906 7.828125 -43.707031 11.859375 -48.75 C 15.898438 -53.800781 21.519531 -56.328125 28.71875 -56.328125 C 36.226562 -56.328125 41.984375 -53.601562 45.984375 -48.15625 L 46.640625 -48.15625 L 46.28125 -52.140625 L 46.078125 -56.03125 L 46.078125 -78.546875 L 54.46875 -78.546875 L 54.46875 0 L 47.65625 0 Z M 29.78125 -6 C 35.5 -6 39.644531 -7.554688 42.21875 -10.671875 C 44.789062 -13.785156 46.078125 -18.8125 46.078125 -25.75 L 46.078125 -27.515625 C 46.078125 -35.347656 44.773438 -40.9375 42.171875 -44.28125 C 39.566406 -47.632812 35.40625 -49.3125 29.6875 -49.3125 C 24.769531 -49.3125 21.003906 -47.398438 18.390625 -43.578125 C 15.785156 -39.765625 14.484375 -34.375 14.484375 -27.40625 C 14.484375 -20.34375 15.78125 -15.007812 18.375 -11.40625 C 20.96875 -7.800781 24.769531 -6 29.78125 -6 Z M 29.78125 -6 "/></g></g></g></g></g></svg>