<svg xmlns="http://www.w3.org/2000/svg" xmlns:xlink="http://www.w3.org/1999/xlink" width="2878" zoomAndPan="magnify" viewBox="0 0 2158.5 952.499971" height="1270" preserveAspectRatio="xMidYMid meet" version="1.0"><defs><clipPath id="f540579527"><path d="M 0.316406 316.113281 L 2157.683594 316.113281 L 2157.683594 635.886719 L 0.316406 635.886719 Z M 0.316406 316.113281 " clip-rule="nonzero"/></clipPath><clipPath id="5119abb9a4"><path d="M 103.515625 316.113281 L 2054.484375 316.113281 C 2081.855469 316.113281 2108.105469 326.988281 2127.457031 346.339844 C 2146.8125 365.695312 2157.683594 391.945312 2157.683594 419.316406 L 2157.683594 532.6875 C 2157.683594 560.054688 2146.8125 586.304688 2127.457031 605.660156 C 2108.105469 625.011719 2081.855469 635.886719 2054.484375 635.886719 L 103.515625 635.886719 C 76.144531 635.886719 49.898438 625.011719 30.542969 605.660156 C 11.1875 586.304688 0.316406 560.054688 0.316406 532.6875 L 0.316406 419.316406 C 0.316406 391.945312 11.1875 365.695312 30.542969 346.339844 C 49.898438 326.988281 76.144531 316.113281 103.515625 316.113281 Z M 103.515625 316.113281 " clip-rule="nonzero"/></clipPath><clipPath id="3307a91604"><path d="M 0.316406 0.113281 L 2157.683594 0.113281 L 2157.683594 319.886719 L 0.316406 319.886719 Z M 0.316406 0.113281 " clip-rule="nonzero"/></clipPath><clipPath id="8758cb95a9"><path d="M 103.515625 0.113281 L 2054.484375 0.113281 C 2081.855469 0.113281 2108.105469 10.988281 2127.457031 30.339844 C 2146.8125 49.695312 2157.683594 75.945312 2157.683594 103.316406 L 2157.683594 216.6875 C 2157.683594 244.054688 2146.8125 270.304688 2127.457031 289.660156 C 2108.105469 309.011719 2081.855469 319.886719 2054.484375 319.886719 L 103.515625 319.886719 C 76.144531 319.886719 49.898438 309.011719 30.542969 289.660156 C 11.1875 270.304688 0.316406 244.054688 0.316406 216.6875 L 0.316406 103.316406 C 0.316406 75.945312 11.1875 49.695312 30.542969 30.339844 C 49.898438 10.988281 76.144531 0.113281 103.515625 0.113281 Z M 103.515625 0.113281 " clip-rule="nonzero"/></clipPath><clipPath id="4248b84d9a"><rect x="0" width="2158" y="0" height="320"/></clipPath><clipPath id="f94127ad23"><path d="M 0.332031 316.113281 L 2157.683594 316.113281 L 2157.683594 636 L 0.332031 636 Z M 0.332031 316.113281 " clip-rule="nonzero"/></clipPath><clipPath id="1d4d98699d"><path d="M 103.53125 316.113281 L 2054.46875 316.113281 C 2081.839844 316.113281 2108.089844 326.988281 2127.441406 346.339844 C 2146.792969 365.695312 2157.667969 391.941406 2157.667969 419.3125 L 2157.667969 532.683594 C 2157.667969 560.050781 2146.792969 586.300781 2127.441406 605.65625 C 2108.089844 625.007812 2081.839844 635.878906 2054.46875 635.878906 L 103.53125 635.878906 C 76.160156 635.878906 49.914062 625.007812 30.558594 605.65625 C 11.207031 586.300781 0.332031 560.050781 0.332031 532.683594 L 0.332031 419.3125 C 0.332031 391.941406 11.207031 365.695312 30.558594 346.339844 C 49.914062 326.988281 76.160156 316.113281 103.53125 316.113281 Z M 103.53125 316.113281 " clip-rule="nonzero"/></clipPath></defs><g clip-path="url(#f540579527)"><g clip-path="url(#5119abb9a4)"><g transform="matrix(1, 0, 0, 1, 0, 316)"><g clip-path="url(#4248b84d9a)"><g clip-path="url(#3307a91604)"><g clip-path="url(#8758cb95a9)"><path fill="#ffffff" d="M 0.316406 0.113281 L 2157.519531 0.113281 L 2157.519531 319.886719 L 0.316406 319.886719 Z M 0.316406 0.113281 " fill-opacity="1" fill-rule="nonzero"/></g></g></g></g></g></g><g clip-path="url(#f94127ad23)"><g clip-path="url(#1d4d98699d)"><path stroke-linecap="butt" transform="matrix(0.749606, 0, 0, 0.749606, 0.332669, 316.11481)" fill="none" stroke-linejoin="miter" d="M 137.670348 -0.00203913 L 2740.28602 -0.00203913 C 2776.799971 -0.00203913 2811.818347 14.505573 2837.633976 40.321203 C 2863.449606 66.142044 2877.957218 101.155208 2877.957218 137.66916 L 2877.957218 288.909979 C 2877.957218 325.418719 2863.449606 360.437094 2837.633976 386.257935 C 2811.818347 412.073565 2776.799971 426.575966 2740.28602 426.575966 L 137.670348 426.575966 C 101.156396 426.575966 66.143232 412.073565 40.322391 386.257935 C 14.506762 360.437094 -0.000851015 325.418719 -0.000851015 288.909979 L -0.000851015 137.66916 C -0.000851015 101.155208 14.506762 66.142044 40.322391 40.321203 C 66.143232 14.505573 101.156396 -0.00203913 137.670348 -0.00203913 Z M 137.670348 -0.00203913 " stroke="#000000" stroke-width="26" stroke-opacity="1" stroke-miterlimit="4"/></g></g></svg>